<svg width="40" height="40" viewBox="0 0 40 40" fill="none" xmlns="http://www.w3.org/2000/svg">
<g clip-path="url(#clip0_1_16)">
<path d="M14.8282 22.5782H9.87202C9.07102 22.5782 8.82071 22.2778 8.82071 21.5269V15.4693C8.82071 14.6683 9.12108 14.418 9.87202 14.418H14.8282V10.0125C14.8282 8.01001 15.1787 6.10763 16.1799 4.35544C17.2312 2.55319 18.7331 1.35169 20.6355 0.650813C21.887 0.20025 23.1386 0 24.4903 0H29.3964C30.0973 0 30.3977 0.300375 30.3977 1.00125V6.70839C30.3977 7.40926 30.0973 7.70964 29.3964 7.70964C28.0447 7.70964 26.693 7.70964 25.3414 7.7597C23.9897 7.7597 23.2888 8.41051 23.2888 9.81227C23.2387 11.3141 23.2888 12.766 23.2888 14.3179H29.0961C29.8971 14.3179 30.1974 14.6183 30.1974 15.4193V21.4768C30.1974 22.2778 29.9471 22.5282 29.0961 22.5282H23.2888V38.8486C23.2888 39.6996 23.0385 40 22.1374 40H15.8795C15.1286 40 14.8282 39.6996 14.8282 38.9487V22.5782Z" fill="#E8E8E8"/>
</g>
<defs>
<clipPath id="clip0_1_16">
<rect width="40" height="40" fill="white"/>
</clipPath>
</defs>
</svg>
