<svg width="40" height="40" viewBox="0 0 40 40" fill="none" xmlns="http://www.w3.org/2000/svg">
<path d="M12.2412 40C13.8003 40 14.2409 39.447 14.2409 38.7404C14.2409 38.0338 14.2409 36.4977 14.207 34.3164C6.10665 35.8833 4.37813 30.8141 4.37813 30.8141C3.05632 27.8341 1.12444 27.0046 1.12444 27.0046C-1.51918 25.4071 1.3278 25.4378 1.3278 25.4378C4.24256 25.6221 5.80162 28.1106 5.80162 28.1106C8.41134 32.1045 12.614 30.937 14.2748 30.2611C14.4103 28.9401 15.0543 27.6805 16.1388 26.7588C9.66537 26.1137 2.85296 23.871 2.85296 13.917C2.81907 11.3364 3.90363 8.8172 5.8694 6.94316C5.53048 6.298 4.54759 3.65591 6.10665 0.0614388C6.10665 0.0614388 8.54691 -0.645166 14.1392 2.73425C18.918 1.56682 23.9341 1.56682 28.713 2.73425C34.2375 -0.614444 36.7116 0.0614388 36.7116 0.0614388C38.2707 3.62519 37.2878 6.26728 37.0167 6.94316C38.9824 8.8172 40.0331 11.3364 39.9992 13.917C39.9992 23.9017 33.1868 26.0829 26.6794 26.7281C27.6962 27.4962 28.6452 29.0937 28.6452 31.5207C28.6452 35.023 28.6113 37.788 28.6113 38.6175C28.6113 39.2934 28.9502 39.8464 30.611 39.8464L12.2412 40Z" fill="#E8E8E8"/>
</svg>
