<svg width="40" height="40" viewBox="0 0 40 40" fill="none" xmlns="http://www.w3.org/2000/svg">
<g clip-path="url(#clip0_2_15)">
<path d="M20.007 9.729C18.6592 9.72879 17.3245 9.9941 16.0792 10.5098C14.8339 11.0255 13.7024 11.7815 12.7493 12.7346C11.7962 13.6877 11.0402 14.8192 10.5245 16.0645C10.0088 17.3098 9.74349 18.6445 9.74371 19.9923C9.74349 21.3402 10.0088 22.6749 10.5245 23.9202C11.0402 25.1655 11.7962 26.297 12.7493 27.2501C13.7024 28.2032 14.8339 28.9592 16.0792 29.4749C17.3245 29.9906 18.6592 30.2559 20.007 30.2557C21.3549 30.2559 22.6896 29.9906 23.9349 29.4749C25.1802 28.9592 26.3117 28.2032 27.2648 27.2501C28.2179 26.297 28.9739 25.1655 29.4896 23.9202C30.0053 22.6749 30.2706 21.3402 30.2704 19.9923C30.2706 18.6445 30.0053 17.3098 29.4896 16.0645C28.9739 14.8192 28.2179 13.6877 27.2648 12.7346C26.3117 11.7815 25.1802 11.0255 23.9349 10.5098C22.6896 9.9941 21.3549 9.72879 20.007 9.729ZM20.007 26.654C18.69 26.6537 17.4026 26.2628 16.3076 25.5309C15.2126 24.799 14.3592 23.7588 13.8554 22.5419C13.3515 21.325 13.2197 19.9861 13.4768 18.6943C13.7338 17.4025 14.3681 16.216 15.2994 15.2847C16.2307 14.3534 17.4172 13.7191 18.709 13.4621C20.0008 13.205 21.3397 13.3368 22.5566 13.8406C23.7735 14.3445 24.8137 15.1979 25.5456 16.2929C26.2775 17.3878 26.6684 18.6753 26.6687 19.9923C26.6692 20.8673 26.4971 21.7337 26.1625 22.5422C25.8279 23.3506 25.3372 24.0851 24.7185 24.7038C24.0999 25.3225 23.3653 25.8132 22.5569 26.1478C21.7484 26.4824 20.882 26.6544 20.007 26.654Z" fill="#E8E8E8"/>
<path d="M28.247 0.125644C24.567 -0.0460221 15.452 -0.0376888 11.7687 0.125644C8.53205 0.277311 5.67705 1.05898 3.37538 3.36064C-0.471288 7.20731 0.0203788 12.3906 0.0203788 19.9923C0.0203788 27.7723 -0.412955 32.8356 3.37538 36.624C7.23705 40.484 12.4954 39.979 20.007 39.979C27.7137 39.979 30.3737 39.984 33.0987 38.929C36.8037 37.4906 39.6004 34.179 39.8737 28.2306C40.047 24.549 40.037 15.4356 39.8737 11.7523C39.5437 4.73065 35.7754 0.472311 28.247 0.125644ZM34.072 34.079C31.5504 36.6006 28.052 36.3756 19.9587 36.3756C11.6254 36.3756 8.28371 36.499 5.84538 34.054C3.03705 31.259 3.54538 26.7706 3.54538 19.9656C3.54538 10.7573 2.60038 4.12564 11.842 3.65231C13.9654 3.57731 14.5904 3.55231 19.9354 3.55231L20.0104 3.60231C28.892 3.60231 35.8604 2.67231 36.2787 11.9123C36.3737 14.0206 36.3954 14.654 36.3954 19.9906C36.3937 28.2273 36.5504 31.589 34.072 34.079Z" fill="#E8E8E8"/>
<path d="M30.677 11.7223C32.0016 11.7223 33.0754 10.6486 33.0754 9.32399C33.0754 7.99943 32.0016 6.92566 30.677 6.92566C29.3525 6.92566 28.2787 7.99943 28.2787 9.32399C28.2787 10.6486 29.3525 11.7223 30.677 11.7223Z" fill="#E8E8E8"/>
</g>
<defs>
<clipPath id="clip0_2_15">
<rect width="40" height="40" fill="white"/>
</clipPath>
</defs>
</svg>
